PathFileType	4	(X/Y/Z)	C:/Users/opensim2020/Desktop/walking_exp_matlab/subject02_walking13_straight_04.trc	
DataRate	CameraRate	NumFrames	NumMarkers	Units	OrigDataRate	OrigDataStartFrame	OrigNumFrames	
100.00	100.00	8	41	mm	100.00	1839	118	
Frame#	Time	LFHD			RFHD			LBHD			RBHD			C7			T10			CLAV			STRN			RBAK			LSHO			LUPA			LELB			LFRM			LWRA			LWRB			LFIN			RSHO			RUPA			RELB			RFRM			RWRA			RWRB			RFIN			LASI			RASI			LPSI			RPSI			LTHI			LKNE			LTIB			LANK			LHEE			LTOE			RTHI			RKNE			RTIB			RANK			RHEE			RTOE			*39			*40			
		X1	Y1	Z1	X2	Y2	Z2	X3	Y3	Z3	X4	Y4	Z4	X5	Y5	Z5	X6	Y6	Z6	X7	Y7	Z7	X8	Y8	Z8	X9	Y9	Z9	X10	Y10	Z10	X11	Y11	Z11	X12	Y12	Z12	X13	Y13	Z13	X14	Y14	Z14	X15	Y15	Z15	X16	Y16	Z16	X17	Y17	Z17	X18	Y18	Z18	X19	Y19	Z19	X20	Y20	Z20	X21	Y21	Z21	X22	Y22	Z22	X23	Y23	Z23	X24	Y24	Z24	X25	Y25	Z25	X26	Y26	Z26	X27	Y27	Z27	X28	Y28	Z28	X29	Y29	Z29	X30	Y30	Z30	X31	Y31	Z31	X32	Y32	Z32	X33	Y33	Z33	X34	Y34	Z34	X35	Y35	Z35	X36	Y36	Z36	X37	Y37	Z37	X38	Y38	Z38	X39	Y39	Z39	X40	Y40	Z40	X41	Y41	Z41	

104	1.030	1445.99878	-542.38635	1688.29492	1308.49255	-508.70288	1659.69470	1487.21399	-403.96182	1644.59656	1352.04785	-360.05194	1617.39160	1428.14661	-312.48215	1492.51709	1434.49597	-274.79968	1208.61853	1436.99353	-452.50034	1426.10889	1429.17920	-514.52167	1260.28845	1370.57227	-260.48746	1307.44714	1606.98218	-384.55606	1468.75366	1687.72803	-334.24548	1274.61426	1692.32983	-299.24521	1141.23169	1715.20837	-258.67181	1020.87909	1684.50928	-248.03326	877.45807	1728.31873	-219.68163	902.63287	1719.27649	-189.42607	838.64349	1245.18005	-374.28482	1457.41394	1151.09595	-378.02698	1271.66296	1116.98804	-434.33902	1135.02429	1106.34387	-529.77521	1059.35938	1130.19104	-647.73138	1000.14929	1102.66528	-616.52728	962.19977	1098.48254	-686.40112	945.58801	1561.81567	-528.63153	963.82672	1304.86328	-503.72485	940.17236	1503.90588	-310.18396	996.73743	1392.08582	-293.99872	996.02332	1652.79126	-539.92596	667.96271	1637.82898	-593.12567	476.46808	1661.24976	-611.93707	285.45374	1654.51733	-705.61670	77.19650	1606.85242	-681.74597	34.42405	1649.07947	-862.48846	92.49829	1258.89136	-346.73395	651.20819	1301.81091	-287.92093	448.39951	1300.55750	-178.87009	292.90585	1338.78906	-95.21117	116.66839	1394.82275	-48.19058	70.89725	1325.04346	-231.94217	34.70798	1369.32129	-439.05594	1767.82922	-3357.36206	2845.91406	1034.27600 
105	1.040	1446.63013	-556.03687	1685.63428	1309.26294	-521.91980	1656.81592	1488.25964	-417.56631	1642.53467	1353.29370	-373.29584	1615.14783	1429.88928	-325.66684	1490.37488	1436.66016	-288.82452	1206.09314	1438.60388	-465.89127	1424.16089	1431.26782	-528.29407	1258.58447	1372.87415	-273.66541	1304.88586	1608.45337	-398.14743	1467.52637	1690.06641	-346.92642	1274.07898	1694.75122	-311.47299	1140.69385	1718.01123	-270.30899	1020.64960	1687.95667	-258.92001	877.24780	1731.32654	-230.58769	902.63098	1721.29285	-198.72935	839.16107	1246.93750	-386.76752	1454.79004	1153.33716	-389.45987	1268.85559	1118.40186	-446.39456	1132.73120	1107.39893	-543.08215	1058.57690	1130.73425	-662.11462	1002.01367	1103.76318	-631.41577	963.09705	1099.00757	-701.83795	948.26434	1563.78333	-544.58185	963.43250	1306.59326	-518.48840	938.12421	1506.78040	-325.35614	994.81616	1395.25659	-309.04300	993.71942	1654.27832	-560.72693	668.83984	1639.28772	-610.33868	475.30835	1662.80347	-624.04926	283.44547	1654.73828	-710.94446	72.48468	1607.28564	-685.68237	30.21634	1649.36548	-867.85040	84.22967	1260.58044	-358.69907	650.30920	1302.41321	-297.81439	448.02283	1301.02222	-185.37065	295.18350	1338.43506	-97.67588	120.77940	1394.54858	-50.05615	76.31258	1324.71094	-232.29077	34.67092	1369.97327	-452.87659	1765.33923	-3357.38013	2845.88354	1034.35571 
106	1.050	1447.26953	-569.59277	1682.92834	1310.06812	-534.94629	1653.83093	1489.43323	-431.10464	1640.37646	1354.61890	-386.37076	1612.82007	1431.70154	-339.13492	1488.03613	1438.94958	-302.98361	1203.42896	1440.23999	-479.34625	1422.21521	1433.39673	-542.25415	1256.90002	1374.78308	-287.44312	1302.05078	1609.84473	-411.76797	1466.26233	1692.65601	-360.02634	1273.50781	1697.58582	-324.08768	1140.23364	1721.42114	-282.58609	1020.42944	1691.30627	-271.00787	876.82526	1734.58777	-242.64719	902.21338	1724.18787	-209.15561	839.53894	1249.09058	-398.78024	1452.16785	1155.32336	-401.78088	1266.34412	1120.07239	-457.61697	1130.27429	1108.65186	-555.72571	1057.67017	1131.30261	-675.90637	1003.36694	1104.96887	-645.62585	963.62134	1099.54602	-716.00897	950.09332	1566.05359	-560.68524	963.35242	1308.76074	-533.78979	936.20825	1509.66455	-340.80078	992.81604	1398.53455	-324.51660	991.29590	1655.66980	-580.81000	669.19348	1640.89697	-626.90491	473.67734	1664.12183	-635.04333	281.04657	1655.15674	-715.01862	67.79776	1608.10291	-688.39313	27.86176	1649.24463	-872.23352	75.30083	1262.34399	-371.44739	649.33240	1302.36768	-308.71622	448.04843	1301.48901	-192.32304	297.77606	1337.96179	-100.54302	125.28857	1394.18726	-52.35430	82.18230	1324.40918	-232.65099	34.72031	1370.64258	-466.57645	1762.77991	-3357.37061	2845.81763	1034.48364 
107	1.060	1447.84399	-583.09741	1680.18872	1310.82959	-547.90363	1650.94055	1490.58496	-444.60562	1638.17773	1356.02820	-399.35461	1610.41003	1433.59583	-351.89581	1485.57446	1441.21106	-317.54874	1200.50867	1441.94556	-492.84033	1420.24536	1435.50928	-556.46478	1255.34094	1377.04456	-300.99149	1299.24072	1611.34082	-425.36575	1465.01648	1695.04614	-373.49887	1272.89148	1700.63501	-337.11691	1139.71277	1724.79065	-295.71307	1019.84210	1695.04065	-283.76013	876.10876	1738.41833	-255.43878	901.78156	1726.96277	-221.50043	839.07336	1251.21777	-411.15717	1449.44409	1157.70496	-412.64685	1263.49927	1121.72644	-468.67715	1127.75439	1110.11768	-567.71393	1056.48987	1131.94226	-689.03094	1004.13208	1106.17688	-659.26575	963.77570	1100.00854	-730.02863	951.54535	1568.50061	-576.74768	963.22589	1311.27490	-549.64380	934.43579	1512.64771	-356.32675	990.75598	1401.88098	-340.14883	988.82959	1657.41589	-600.12927	669.09668	1643.32166	-642.09515	471.78775	1664.23877	-645.37860	278.28552	1655.01709	-720.00403	64.91261	1607.76111	-692.20844	30.66288	1650.59192	-879.74115	60.85799	1264.16016	-384.80023	648.29736	1302.55566	-320.25586	447.96078	1301.82825	-199.95511	300.54257	1337.38086	-103.94141	130.27917	1393.89856	-55.13658	88.72948	1324.04626	-233.09392	34.60175	1371.34753	-480.05493	1760.20825	-3357.29346	2845.97510	1034.18677 
108	1.070	1448.33044	-596.97125	1678.16333	1311.40344	-561.04437	1648.48083	1491.78259	-458.38181	1636.37708	1357.44800	-412.49872	1608.32068	1435.59521	-364.71823	1483.29041	1443.77869	-331.56686	1198.25061	1443.69360	-506.27515	1418.43848	1437.62341	-570.60773	1254.37537	1379.95874	-314.46927	1296.94592	1612.95190	-438.98709	1463.90942	1697.98450	-386.80228	1272.45825	1703.83105	-350.55032	1138.98853	1728.38049	-309.49432	1018.94611	1699.02417	-298.32922	875.44666	1742.29626	-269.34238	900.78235	1730.56079	-234.89766	838.31110	1252.72095	-423.99994	1446.73877	1159.77319	-424.56848	1260.54797	1123.38452	-480.01822	1125.09888	1111.41028	-579.46429	1054.76990	1132.73279	-701.64642	1004.47321	1107.48560	-672.28809	963.46387	1100.75195	-743.18225	952.41986	1571.19629	-592.58478	963.41583	1314.19482	-565.84442	932.71399	1515.60645	-372.13846	988.93048	1405.27502	-355.85074	986.31079	1659.52454	-617.79657	669.17889	1646.66943	-655.34271	470.85272	1661.92798	-656.67542	276.19025	1658.68347	-728.43213	66.07661	1610.59961	-697.69794	34.08638	1651.33362	-888.59265	46.39513	1266.08203	-398.92758	647.24390	1302.73218	-332.67249	447.73358	1302.04688	-208.27899	303.53012	1336.39795	-108.05376	135.82825	1392.79443	-58.42429	96.11652	1323.66284	-233.67174	34.66266	1372.02527	-493.44150	1758.06787	-3357.25415	2845.92261	1034.30481 
109	1.080	1448.35425	-610.58710	1676.62000	1311.82813	-573.94104	1646.69360	1492.86841	-472.28607	1635.49438	1358.88074	-425.51599	1607.11182	1437.78650	-377.07132	1481.69971	1446.20532	-345.88885	1196.68457	1445.27917	-519.41150	1417.37329	1439.52039	-584.26495	1253.86633	1383.00391	-327.91772	1294.71606	1614.75415	-452.46338	1463.01257	1700.84485	-400.60056	1271.85852	1707.37659	-364.52213	1138.27856	1731.95276	-324.15793	1017.73181	1703.04492	-313.30182	874.31757	1745.94006	-284.52789	899.34296	1734.28308	-249.86482	836.96698	1254.85657	-435.37979	1444.51575	1162.11462	-435.71936	1257.62000	1125.30115	-490.59604	1122.29102	1112.95386	-591.14099	1053.19312	1133.68958	-713.70605	1004.24146	1108.84924	-684.68921	962.77423	1101.54529	-755.55695	952.54926	1574.17175	-608.52930	963.78766	1317.57129	-582.18774	931.04156	1518.77393	-388.22238	987.72888	1408.43726	-371.53641	983.80371	1662.57751	-633.42139	670.05731	1650.23157	-668.79388	471.12463	1662.37756	-668.76251	277.36591	1661.84802	-738.09869	64.57819	1615.89783	-701.01886	36.84103	1649.82361	-896.41724	38.50787	1268.18738	-413.63828	646.14459	1302.83862	-346.41049	447.71579	1301.93787	-217.78458	306.79846	1335.14856	-113.19367	141.92946	1391.77356	-62.76497	104.45210	1323.35364	-234.21884	34.56016	1372.46423	-507.00861	1756.58655	-3360.26270	2845.18408	1034.18213 
110	1.090	1448.38257	-624.38910	1675.59326	1312.16064	-586.68463	1645.22034	1493.90112	-486.20135	1635.16907	1360.43750	-438.43683	1606.51111	1439.85547	-390.02423	1481.04944	1448.31030	-360.09506	1195.44824	1446.87622	-532.37775	1416.87012	1441.36279	-598.02380	1253.70020	1386.54907	-340.64233	1293.36194	1616.55933	-465.79208	1462.38025	1703.61230	-414.84106	1271.33984	1710.90991	-379.04459	1137.51660	1735.82727	-339.53653	1016.70032	1707.07471	-329.06363	872.94507	1750.39758	-300.15289	898.24005	1738.44446	-266.39508	835.24988	1256.01489	-447.38260	1442.36633	1164.58765	-446.69135	1254.76184	1127.28589	-501.12274	1119.47546	1114.58337	-602.31158	1051.44409	1134.77612	-725.12140	1003.59406	1110.39697	-696.33270	961.41827	1102.53796	-767.32513	952.34418	1577.29138	-624.29395	964.23792	1321.22681	-598.41736	929.43225	1521.53149	-403.89502	987.41077	1411.03088	-387.21716	981.78290	1667.30334	-647.18927	670.89142	1652.34924	-684.67548	472.91470	1669.32288	-682.60797	280.35202	1660.76440	-742.29376	64.02852	1614.32544	-702.58197	36.07084	1651.79761	-897.53143	34.12792	1270.46790	-429.09689	645.29608	1302.19299	-361.29962	447.39792	1301.54688	-228.80086	310.34229	1333.88892	-119.47321	148.75212	1391.22681	-68.47316	113.76857	1323.13879	-235.13190	34.64727	1372.79199	-520.66992	1755.60400	-3360.25806	2845.18018	1034.25549 
111	1.100	1448.14014	-638.39453	1675.15784	1312.34033	-599.57843	1644.32068	1494.83472	-500.35086	1635.54395	1361.87671	-451.50360	1606.44250	1441.78003	-402.85840	1481.14526	1450.18433	-373.92694	1195.22437	1448.26111	-545.19922	1416.88855	1442.95337	-611.56323	1254.38245	1389.75024	-353.71786	1292.43201	1618.36023	-479.03625	1462.11096	1706.29797	-429.49350	1270.93201	1714.45789	-394.13181	1136.88330	1739.79980	-355.61618	1015.61475	1711.20142	-346.38748	872.13080	1754.57190	-317.15524	896.89478	1743.10522	-284.49179	833.44806	1256.88025	-459.45245	1440.89624	1167.22253	-457.37640	1252.28528	1129.64563	-511.12375	1116.73914	1116.40906	-612.21973	1048.97546	1135.99255	-735.59705	1002.52277	1111.99707	-707.14142	960.00946	1103.56165	-778.11658	951.42151	1580.53149	-639.48267	964.94843	1325.06775	-614.47986	927.92023	1523.81042	-419.09900	988.61792	1412.81335	-402.78452	980.33044	1672.00366	-658.47900	672.52319	1652.62219	-702.36951	475.84512	1675.19287	-697.02771	283.80298	1658.15906	-740.62524	65.56029	1613.41956	-703.53479	36.92729	1650.97205	-899.10376	32.24803	1272.76782	-445.12384	644.57660	1301.61780	-377.97995	446.99548	1300.98474	-241.54472	313.92920	1332.68530	-127.23233	156.21359	1390.84558	-75.76669	124.30009	1322.92566	-235.99640	34.63363	1372.94409	-534.34052	1755.35291	-3357.23877	2845.78735	1034.23914 
